# Blender 4.1.1
# www.blender.org
mtllib player.mtl
o Cube
v 0.278024 1.000000 -0.278024
v 1.000000 -0.013382 -1.000000
v 0.278024 1.000000 0.278024
v 1.000000 -0.013382 1.000000
v -0.278024 1.000000 -0.278024
v -1.000000 -0.013382 -1.000000
v -0.278024 1.000000 0.278024
v -1.000000 -0.013382 1.000000
v 0.278024 1.606292 -0.278024
v 0.278024 1.606292 0.278024
v -0.278024 1.606292 -0.278024
v -0.278024 1.606292 0.278024
v 0.278024 1.000000 0.874878
v -0.278024 1.000000 0.874878
v 0.278024 1.606292 0.874878
v -0.278024 1.606292 0.874878
v 0.448703 1.210937 -0.084567
v 0.448703 1.210937 0.084567
v 0.448703 1.395355 -0.084567
v 0.448703 1.395355 0.084567
v 0.830544 1.210937 -0.084567
v 0.830544 1.210937 0.084567
v 0.830544 1.395355 -0.084567
v 0.830544 1.395355 0.084567
v 1.023704 1.210937 -0.084567
v 1.023704 1.210937 0.084567
v 1.023704 1.395355 -0.084567
v 1.023704 1.395355 0.084567
v 0.830544 1.889041 -0.084567
v 0.830544 1.889041 0.084567
v 1.023704 1.889041 -0.084567
v 1.023704 1.889041 0.084567
vn -0.0000 -0.0000 -1.0000
vn -0.0000 0.5802 0.8144
vn -0.8144 0.5802 -0.0000
vn -0.0000 -1.0000 -0.0000
vn 0.8144 0.5802 -0.0000
vn -0.0000 0.5802 -0.8144
vn -0.0000 1.0000 -0.0000
vn -1.0000 -0.0000 -0.0000
vn 0.7774 0.6290 -0.0000
vn -0.0000 -0.0000 1.0000
vn 1.0000 -0.0000 -0.0000
vn 0.7774 -0.6290 -0.0000
vn 0.7499 -0.0000 0.6616
vn 0.7499 -0.0000 -0.6616
vt 0.625000 0.500000
vt 0.625000 0.250000
vt 0.375000 0.750000
vt 0.625000 0.750000
vt 0.625000 1.000000
vt 0.375000 1.000000
vt 0.375000 0.000000
vt 0.625000 0.000000
vt 0.375000 0.250000
vt 0.375000 0.500000
vt 0.125000 0.750000
vt 0.125000 0.500000
vt 0.875000 0.500000
vt 0.875000 0.750000
s 0
usemtl Material
f 1/1/1 5/2/1 11/2/1 9/1/1
f 4/3/2 3/4/2 7/5/2 8/6/2
f 8/7/3 7/8/3 5/2/3 6/9/3
f 2/10/4 8/11/4 6/12/4
f 2/10/5 1/1/5 3/4/5 4/3/5
f 6/9/6 5/2/6 1/1/6 2/10/6
f 9/1/7 11/13/7 12/14/7 10/4/7
f 10/4/7 12/14/7 16/14/7 15/4/7
f 5/2/8 7/8/8 12/8/8 11/2/8
f 9/1/9 10/4/9 20/4/9 19/1/9
f 14/5/10 13/4/10 15/4/10 16/5/10
f 12/8/8 7/8/8 14/8/8 16/8/8
f 7/5/4 3/4/4 13/4/4 14/5/4
f 3/4/11 10/4/11 15/4/11 13/4/11
f 2/10/4 4/3/4 8/11/4
f 17/1/1 19/1/1 23/1/1 21/1/1
f 3/4/12 1/1/12 17/1/12 18/4/12
f 10/4/13 3/4/13 18/4/13 20/4/13
f 1/1/14 9/1/14 19/1/14 17/1/14
f 21/1/1 23/1/1 27/1/1 25/1/1
f 18/4/4 17/1/4 21/1/4 22/4/4
f 20/4/10 18/4/10 22/4/10 24/4/10
f 19/1/7 20/4/7 24/4/7 23/1/7
f 26/4/11 25/1/11 27/1/11 28/4/11
f 22/4/4 21/1/4 25/1/4 26/4/4
f 24/4/10 22/4/10 26/4/10 28/4/10
f 24/4/10 28/4/10 32/4/10 30/4/10
f 29/1/7 30/4/7 32/4/7 31/1/7
f 28/4/11 27/1/11 31/1/11 32/4/11
f 23/1/8 24/4/8 30/4/8 29/1/8
f 27/1/1 23/1/1 29/1/1 31/1/1
