# Blender 4.1.1
# www.blender.org
mtllib enemy.mtl
o 立方体
v 1.000000 -1.000000 -1.000000
v 1.000000 0.313393 -1.000000
v 1.000000 -1.000000 1.000000
v 1.000000 0.313393 1.000000
v -1.000000 -1.000000 -1.000000
v -1.000000 0.313393 -1.000000
v -1.000000 -1.000000 1.000000
v -1.000000 0.313393 1.000000
v 1.194377 0.600036 -1.239876
v 1.194377 0.600036 1.141660
v -1.194377 0.600036 1.141660
v -1.194377 0.600036 -1.239876
v 1.000000 1.722224 -1.000000
v 1.000000 1.722224 1.000000
v -1.000000 1.722224 1.000000
v -1.000000 1.722224 -1.000000
v 1.596781 -0.650362 -1.000000
v 1.596781 -0.650362 1.000000
v 1.596781 -0.363719 -1.000000
v 1.596781 -0.363719 1.000000
v -1.596781 -0.650362 1.000000
v -1.596781 -0.650362 -1.000000
v -1.596781 -0.363719 1.000000
v -1.596781 -0.363719 -1.000000
vn 1.0000 -0.0000 -0.0000
vn -0.0000 -0.0000 1.0000
vn -1.0000 -0.0000 -0.0000
vn -0.0000 -0.0000 -1.0000
vn -0.0000 -1.0000 -0.0000
vn 0.8502 -0.5265 -0.0000
vn 0.9853 0.1707 -0.0000
vn 0.9228 0.3853 -0.0000
vn -0.0000 -0.6418 -0.7669
vn -0.0000 -0.4431 0.8965
vn -0.0000 1.0000 -0.0000
vn -0.0000 0.2090 -0.9779
vn -0.0000 0.1252 0.9921
vn -0.9853 0.1707 -0.0000
vn -0.1955 -0.1723 0.9655
vn -0.8502 -0.5265 -0.0000
vn -0.3118 -0.2748 -0.9095
vn 0.3118 -0.2748 -0.9095
vn 0.1955 -0.1723 0.9655
vn -0.9228 0.3853 -0.0000
vt 0.582838 0.853668
vt 0.442590 0.853668
vt 0.442590 0.640101
vt 0.582838 0.640101
vt 0.582838 0.499852
vt 0.796406 0.499852
vt 0.796406 0.640101
vt 0.936655 0.640101
vt 0.936655 0.853668
vt 0.796406 0.853668
vt 0.796406 0.993917
vt 0.582838 0.993917
vt 0.168687 0.006671
vt 0.382254 0.006671
vt 0.382254 0.127717
vt 0.168687 0.127717
vt 0.397381 0.726648
vt 0.143072 0.726648
vt 0.168687 0.605033
vt 0.382254 0.605033
vt 0.382254 0.838172
vt 0.168687 0.838172
vt 0.006236 0.605033
vt 0.006236 0.391465
vt 0.046148 0.370709
vt 0.046148 0.625789
vt 0.537179 0.391465
vt 0.537179 0.605033
vt 0.503036 0.625789
vt 0.503036 0.370709
vt 0.382254 0.391465
vt 0.168687 0.391465
vt 0.143072 0.269850
vt 0.397381 0.269850
vt 0.382254 0.868781
vt 0.168687 0.868781
vt 0.427399 0.753020
vt 0.389379 0.867940
vt 0.382254 0.989827
vt 0.168687 0.989827
vt 0.112630 0.759771
vt 0.165579 0.868623
vt 0.382254 0.158326
vt 0.168687 0.158326
vt 0.112630 0.236727
vt 0.165579 0.127875
vt 0.427399 0.243478
vt 0.389379 0.128558
s 0
usemtl マテリアル
f 1/1/1 2/2/1 4/3/1 3/4/1
f 3/4/2 4/5/2 8/6/2 7/7/2
f 7/7/3 8/8/3 6/9/3 5/10/3
f 5/10/4 6/11/4 2/12/4 1/1/4
f 3/4/5 7/7/5 5/10/5 1/1/5
f 6/13/6 8/14/6 21/15/6 22/16/6
f 10/17/7 9/18/7 13/19/7 14/20/7
f 9/18/8 10/17/8 20/21/8 19/22/8
f 2/23/9 6/24/9 12/25/9 9/26/9
f 8/27/10 4/28/10 10/29/10 11/30/10
f 15/31/11 14/20/11 13/19/11 16/32/11
f 9/26/12 12/25/12 16/32/12 13/19/12
f 11/30/13 10/29/13 14/20/13 15/31/13
f 12/33/14 11/34/14 15/31/14 16/32/14
f 18/35/1 17/36/1 19/22/1 20/21/1
f 10/17/15 4/37/15 18/38/15 20/21/15
f 4/39/16 2/40/16 17/36/16 18/35/16
f 2/41/17 9/18/17 19/22/17 17/42/17
f 22/16/3 21/15/3 23/43/3 24/44/3
f 12/33/18 6/45/18 22/46/18 24/44/18
f 8/47/19 11/34/19 23/43/19 21/48/19
f 11/34/20 12/33/20 24/44/20 23/43/20
